<svg xmlns="http://www.w3.org/2000/svg" viewBox="0 0 800 600" width="800" height="600">
<rect width="800" height="600" fill="#0b1120"/>
<text x="24" y="32" font-family="Segoe UI,Arial" font-size="16" fill="#38bdf8" font-weight="700">SOC WAR ROOM — LIVE INCIDENT DASHBOARD</text>
<rect x="20" y="50" width="360" height="200" rx="6" fill="#1e293b" stroke="#334155"/>
<text x="36" y="78" font-size="12" fill="#fbbf24" font-weight="600">Email Gateway Alerts</text>
<rect x="36" y="95" width="320" height="55" rx="4" fill="#451a03" stroke="#f97316"/>
<text x="50" y="118" font-size="11" fill="#fdba74">847 phishing emails blocked</text>
<text x="50" y="136" font-size="10" fill="#fb923c">Subject: [IT] Reset VPN password immediately</text>
<rect x="400" y="50" width="380" height="200" rx="6" fill="#1e293b" stroke="#334155"/>
<text x="416" y="78" font-size="12" fill="#f87171" font-weight="600">Brute Force Monitor</text>
<rect x="430" y="100" width="40" height="120" fill="#7f1d1d"/><rect x="480" y="130" width="40" height="90" fill="#991b1b"/><rect x="530" y="110" width="40" height="110" fill="#b91c1c"/><rect x="580" y="90" width="40" height="130" fill="#dc2626"/><rect x="630" y="85" width="40" height="135" fill="#ef4444"/>
<text x="416" y="190" font-size="10" fill="#fca5a5">2,340 failed logins / 10 min</text>
<rect x="20" y="270" width="360" height="200" rx="6" fill="#1e293b" stroke="#334155"/>
<text x="36" y="298" font-size="12" fill="#34d399" font-weight="600">Outbound Traffic (Exfil Watch)</text>
<polyline points="40,420 100,410 160,405 220,400 280,395 340,180 380,430" fill="none" stroke="#22d3ee" stroke-width="2"/>
<circle cx="340" cy="180" r="6" fill="#ef4444"/>
<rect x="400" y="270" width="380" height="200" rx="6" fill="#1e293b" stroke="#334155"/>
<text x="416" y="298" font-size="12" fill="#a78bfa" font-weight="600">Network Map + Firewall</text>
<circle cx="580" cy="420" r="22" fill="#dc2626" stroke="#fca5a5" stroke-width="2"/>
<text x="580" y="425" text-anchor="middle" fill="#fff" font-size="8">DB-PROD</text>
<rect x="650" y="310" width="110" height="30" rx="3" fill="#450a0a" stroke="#ef4444"/>
<text x="660" y="330" font-size="9" fill="#fca5a5">+ ALLOW :4444 ANY</text>
</svg>